<svg width="1254" height="748" viewBox="0 0 1254 748" fill="none" xmlns="http://www.w3.org/2000/svg">
<path d="M1037.5 202.5C1136.3 118.1 1049.33 32.6667 993.5 0.5H1059C1170.5 35.6667 1389.33 218.208 1136 460C850.5 732.5 248.333 773.833 -47 735L-7.5 361C588.5 389.5 914 308 1037.5 202.5Z" fill="#FF8730"/>
<path d="M362 680C149.2 698.4 22.6667 684.333 -14 675V657C22.6667 666.333 149.2 680.4 362 662C628 639 822 567 911 530C1000 493 1154.5 397.5 1200.5 239.5C1168.5 399.5 1000 511 911 548C822 585 628 657 362 680Z" fill="#D9D9D9"/>
<path d="M362 551.5C149.2 569.9 22.6667 555.833 -14 546.5V527.5C22.6667 536.833 149.2 550.9 362 532.5C628 509.5 787.5 453 876.5 416C965.5 379 1082.5 308 1128.5 150C1096.5 310 965.5 398 876.5 435C787.5 472 628 528.5 362 551.5Z" fill="#D9D9D9"/>
<path d="M951.88 91.8165C954.185 92.4947 956.571 92.8903 957.475 93.0033L947.98 142.682C946.397 144.321 942.927 148.176 941.706 150.482C940.18 153.364 932.89 160.994 930.346 164.724C927.803 168.454 924.073 173.032 922.716 174.219C921.36 175.406 919.156 180.323 917.121 183.375C915.087 186.427 914.239 189.14 913.73 191.174C913.222 193.209 914.239 194.735 915.595 196.431C916.952 198.126 916.104 202.535 915.595 203.552C915.087 204.569 914.239 205.078 914.239 206.434C914.239 207.791 913.222 209.317 912.713 211.182C912.306 212.674 912.882 215.986 913.222 217.455C916.613 216.947 919.325 218.812 919.665 220.168C919.936 221.253 918.873 221.864 918.308 222.033C918.421 222.429 918.579 223.423 918.308 224.237C917.969 225.255 915.765 224.237 914.239 223.729C913.018 223.322 911.243 223.22 910.509 223.22C911.187 224.068 911.017 225.085 909.83 225.594C908.644 226.102 908.474 224.915 907.118 224.237C905.761 223.559 904.066 223.05 903.387 222.033C902.709 221.016 901.183 220.677 899.827 219.49C898.742 218.54 899.036 216.947 899.318 216.268C898.414 215.025 896.368 212.267 895.418 211.182C894.232 209.825 893.384 208.978 893.045 207.96C892.706 206.943 894.401 206.265 894.571 205.078C894.74 203.891 896.605 201.348 897.623 199.822C898.64 198.296 902.54 186.427 902.879 184.901C903.218 183.375 902.37 179.475 905.083 177.78C907.796 176.084 912.882 163.876 914.747 159.977C916.613 156.077 922.038 143.021 923.903 138.613C925.768 134.205 934.585 120.64 935.942 119.623C937.027 118.809 936.959 116.91 936.789 116.063C934.246 113.18 933.737 108.941 933.568 105.211C933.398 101.481 935.433 97.9204 939.333 93.8511C943.232 89.7818 948.997 90.9687 951.88 91.8165Z" fill="#735240" stroke="#735240"/>
<path d="M946.793 305.284C945.437 302.842 943.854 298.954 943.232 297.315L942.724 294.263L943.911 279.512L987.316 274.934C1002.35 287.311 1032.11 312.947 1030.89 316.474C1029.67 320.001 1027.9 329.36 1027.16 333.599C1030.04 335.294 1031.23 337.499 1032.42 341.907C1033.6 346.315 1032.25 352.589 1030.21 357.845C1028.59 362.05 1024.79 366.04 1023.09 367.51L1021.23 378.7L1014.28 383.448L1003.42 380.565L1003.76 371.748C1003.59 371.127 1003.46 369.409 1004.27 367.51C1005.09 365.611 1005.97 362.649 1006.31 361.406C1006.7 361.632 1007.29 361.948 1006.48 361.406C1005.46 360.727 1003.59 358.354 1002.41 357.675C1001.46 357.133 1001.56 355.076 1001.73 354.115C1001.33 353.606 1000.27 351.945 999.185 349.367C997.828 346.146 997.32 343.263 997.489 341.059C997.659 338.855 996.472 338.855 994.268 331.903C992.504 326.342 992.629 319.3 992.911 316.474L991.216 294.771C989.577 298.784 985.756 307.59 983.586 310.709C980.873 314.609 978.838 325.8 977.991 330.377C977.143 334.955 978.16 338.686 977.143 341.059C976.329 342.958 975.673 346.259 975.447 347.672C977.03 352.702 980.568 364.763 982.06 372.766C983.925 382.769 982.908 391.247 982.06 393.621C981.212 395.994 980.195 400.742 980.195 404.811C980.195 408.88 980.195 414.815 979.347 419.562C978.499 424.31 978.33 427.192 977.991 433.127C977.652 439.061 978.669 444.995 980.195 447.878C981.721 450.76 982.06 453.303 981.382 455.338C980.839 456.966 981.156 459.294 981.382 460.255L963.579 458.22C961.883 456.016 963.07 450.93 963.579 447.538C964.087 444.147 963.24 439.57 960.696 431.94C958.153 424.31 956.118 415.154 953.914 407.863C951.71 400.572 948.319 386.669 947.132 375.139C945.945 363.61 948.488 352.758 948.997 351.402C949.506 350.046 949.845 346.146 950.354 342.755C950.862 339.364 949.675 336.481 950.354 331.734C951.032 326.986 951.032 325.291 951.201 319.865C951.371 314.439 948.488 308.336 946.793 305.284Z" fill="#735240" stroke="#735240"/>
<path d="M938.485 248.314C938.214 244.651 939.615 239.215 940.35 236.954L1035.3 246.618C1033.94 254.079 1036.66 255.435 1037.33 264.93C1038.01 274.425 1038.18 280.359 1036.66 291.719C1035.44 300.807 1032.53 312.8 1031.23 317.661C1026.99 322.578 1022.92 327.665 1012.41 328.173C1001.9 328.682 994.268 319.865 992.742 316.135C991.521 313.151 990.99 304.945 990.877 301.214C989.385 304.334 985.281 309.07 983.416 311.048C985.112 308.336 985.451 302.74 983.416 300.027C981.382 297.315 980.704 295.28 978.499 291.719C976.295 288.159 973.413 282.903 969.174 280.359C964.935 277.816 956.457 277.986 948.997 282.903C943.029 286.836 942.78 294.715 943.402 298.162C940.18 291.211 940.35 271.373 941.198 269.508C942.045 267.643 939.502 261.03 939.841 258.657C940.18 256.283 938.824 252.892 938.485 248.314Z" fill="#152652" stroke="#152652"/>
<path d="M964.596 42.6462C962.833 45.4947 962.505 48.4675 962.561 49.5978L979.856 46.3763L994.776 57.7364L1004.78 65.5358C1005.63 62.936 1007.29 56.3121 1007.15 50.6152C1006.98 43.4939 1003.59 39.9333 999.185 35.864C994.776 31.7948 984.434 29.9297 977.991 31.6252C971.548 33.3208 966.8 39.0856 964.596 42.6462Z" fill="#1B0F01" stroke="#1B0F01"/>
<path d="M1005.8 93.512C1007.43 94.4615 1010.54 95.264 1011.9 95.5466L1010.04 103.177L991.046 114.876L973.582 119.454L963.24 111.993L966.97 103.177L967.987 91.8165V89.9514C967.987 89.1036 967.818 89.2732 966.631 86.8994C965.444 84.5257 963.918 80.7955 962.392 77.2349C960.866 73.6743 961.544 70.6224 961.205 66.8922C960.866 63.162 961.714 58.9232 962.392 56.8886C963.07 54.8539 962.392 53.1584 962.392 50.9542C962.392 48.75 963.918 45.0199 965.783 42.1375C967.648 39.2551 971.887 39.5942 976.295 40.6115C980.704 41.6288 990.368 40.6115 994.098 41.2897C997.828 41.9679 998.507 53.1584 999.015 54.6844C999.524 56.2104 1001.9 62.3143 1002.91 61.297C1003.93 60.2796 1006.48 61.8056 1007.83 62.3143C1009.19 62.8229 1008.34 64.5185 1009.02 65.5358C1009.7 66.5531 1009.36 68.5877 1008.34 69.605C1007.32 70.6224 1005.8 72.4874 1004.78 73.6743C1003.97 74.6238 1001.73 74.409 1000.71 74.183V87.5777C1000.88 88.7645 1003.76 92.3251 1005.8 93.512Z" fill="#735240" stroke="#735240"/>
<path d="M1011.05 118.267C1008.75 123.828 1008.4 126.914 1008.51 127.762L1006.48 140.987L1034.79 160.994L1067.35 173.711C1066.38 171.28 1064.43 166.047 1064.29 164.555C1064.12 162.69 1064.29 157.264 1062.6 154.212C1060.9 151.16 1055.31 138.613 1054.12 135.392C1052.93 132.17 1053.27 128.101 1052.09 123.353C1050.9 118.606 1047.17 110.976 1044.29 107.246C1041.4 103.516 1038.52 100.464 1035.13 100.294C1031.74 100.125 1029.87 98.9378 1028.35 98.09C1026.82 97.2422 1026.48 97.2422 1023.09 98.09C1019.7 98.9378 1020.89 100.972 1017.84 104.194C1014.78 107.415 1013.94 111.315 1011.05 118.267Z" fill="#684A3A" stroke="#684A3A"/>
<path d="M957.644 93.3425C959.679 92.393 965.387 91.9296 967.987 91.8165C968.937 95.4789 968.948 99.1073 968.835 100.464C968.439 102.216 967.478 105.889 966.8 106.568C965.952 107.415 964.935 108.602 965.952 109.111C966.97 109.62 967.648 110.976 968.326 111.993C969.004 113.011 970.361 115.045 971.378 115.215C972.395 115.384 975.956 115.384 979.686 115.045C983.416 114.706 986.468 113.689 989.859 111.993C993.25 110.298 1002.07 104.872 1005.97 99.9551C1009.09 96.0214 1011.56 95.1511 1012.41 95.2076C1022.31 94.8007 1027.05 96.9596 1028.18 98.09C1025.47 96.2249 1022.24 98.4291 1021.74 99.4464C1021.23 100.464 1019.87 101.99 1018.51 103.516C1017.16 105.042 1015.12 107.924 1014.61 109.789C1014.11 111.654 1013.09 113.689 1011.05 117.928C1009.43 121.319 1008.57 126.123 1008.34 128.101L1005.12 130.305L1032.42 181.34C1032.28 182.154 1031 182.923 1030.38 183.206C1030.5 183.206 1030.72 183.545 1030.72 184.901C1030.72 186.257 1029.14 187.727 1028.35 188.292C1028.4 188.631 1028.59 189.615 1028.86 190.835C1029.2 192.361 1028.52 194.396 1028.01 195.583C1027.5 196.77 1027.33 197.618 1028.52 199.313C1029.7 201.009 1028.69 204.569 1028.86 206.434C1029.03 208.299 1028.52 208.978 1029.87 208.808C1031.23 208.638 1030.04 211.182 1030.04 212.03C1030.04 212.877 1032.42 215.929 1033.26 217.964C1034.11 219.999 1032.59 219.829 1032.42 221.355C1032.25 222.881 1033.77 225.255 1035.81 231.019C1037.44 235.631 1036.83 242.662 1036.32 245.601C1034.62 248.653 1031.91 250.009 1025.8 252.214C1019.7 254.418 1008.51 253.231 1002.58 253.231C996.642 253.231 987.316 250.688 983.586 249.84C979.856 248.992 963.409 244.075 959.001 242.719C954.592 241.362 940.35 237.293 940.011 236.784C939.672 236.276 940.689 234.919 941.537 232.376C942.385 229.833 942.554 227.968 942.385 224.068C942.249 220.948 943.911 219.829 944.758 219.659C943.538 216.268 945.154 214.064 946.115 213.386C945.436 210.673 946.793 208.469 947.98 207.282C949.167 206.095 950.014 205.417 949.167 204.4C948.319 203.382 947.641 202.195 947.98 198.974C948.319 195.752 950.354 192.022 951.032 190.666C951.71 189.309 951.54 186.427 950.523 182.358C949.506 178.289 950.354 174.728 950.354 172.863C950.354 170.998 950.354 170.659 950.014 167.946C949.675 165.233 948.828 158.959 948.488 149.973C948.149 140.987 947.98 144.887 946.962 138.952C945.945 133.018 947.132 130.644 947.98 122.675C948.828 114.706 949.845 111.315 952.049 103.516C953.812 97.2761 956.514 94.1338 957.644 93.3425Z" fill="black" stroke="black"/>
<path d="M1011.73 139.63C1012.27 141.529 1014.44 143.135 1015.46 143.7C1017.83 145.565 1024.79 151.669 1028.35 154.042C1031.91 156.416 1034.45 160.146 1036.32 160.146C1038.18 160.146 1042.42 162.52 1047.68 164.046C1052.93 165.572 1060.56 169.98 1064.8 171.845C1069.04 173.711 1069.04 178.458 1069.04 181.51C1069.04 184.562 1069.21 184.732 1069.04 188.631C1068.87 192.531 1068.19 193.718 1066.33 197.957C1064.46 202.195 1062.94 202.874 1060.56 203.213C1058.19 203.552 1055.65 200.5 1054.8 199.483C1053.95 198.465 1044.62 192.7 1042.25 190.835C1039.88 188.97 1034.79 184.053 1031.74 180.832C1028.69 177.61 1016.31 164.385 1014.28 161.672C1012.65 159.502 1009.3 156.134 1007.83 154.721L1006.65 153.025C1002.91 152.177 1002.07 150.821 999.185 147.43C996.302 144.039 994.776 140.648 994.268 138.444C993.861 136.68 992.742 136.126 992.233 136.07C992.459 136.296 992.606 137.019 991.385 138.104C989.859 139.461 987.316 135.9 986.468 135.222C985.79 134.679 986.751 133.187 987.316 132.509C985.451 131.831 985.621 130.644 986.468 127.423C987.147 124.845 988.56 123.523 989.181 123.184C988.899 123.014 988.333 122.37 988.333 121.149C988.333 119.928 990.933 118.945 992.233 118.606C992.403 115.215 995.116 114.706 996.981 116.063C998.846 117.419 1002.75 120.471 1004.44 121.488C1006.14 122.506 1007.15 123.692 1007.15 125.218C1007.15 126.439 1007.61 127.197 1007.83 127.423C1009.53 127.931 1009.7 131.492 1010.38 133.187C1011.05 134.883 1011.05 137.257 1011.73 139.63Z" fill="#735240" stroke="#735240"/>
<path d="M981.382 459.238C981.924 458.831 982.625 459.068 982.908 459.238C983.416 460.085 982.569 461.103 982.569 462.798C982.569 464.494 983.586 464.663 983.586 468.054C983.586 471.445 982.399 473.65 981.382 474.328C980.364 475.006 979.517 476.023 979.178 477.719C978.838 479.414 978.33 482.636 976.973 485.518C975.617 488.401 976.634 489.248 975.787 491.622C974.939 493.996 970.361 494.844 966.97 494.844C963.579 494.844 951.201 494.844 950.523 491.453C949.845 488.062 952.558 483.484 953.745 482.636C954.931 481.788 954.762 481.958 955.61 478.567C956.457 475.176 958.831 476.362 958.831 474.158C958.831 471.954 960.188 469.75 961.205 467.546C962.222 465.342 961.544 462.29 962.561 460.933C963.579 459.577 963.918 458.39 963.748 457.712C963.579 457.033 963.24 456.016 964.257 455.847C965.274 455.677 967.139 456.525 968.665 456.355C970.191 456.186 973.074 456.355 975.447 457.373C977.821 458.39 980.704 459.746 981.382 459.238Z" fill="#D9D9D9" stroke="#D9D9D9"/>
<path d="M1002.07 370.222C1002.61 367.238 1003.14 361.519 1003.42 358.862C1005.29 360.388 1006.36 360.953 1006.81 361.236C1005.29 363.101 1004.27 367.001 1004.1 369.036C1003.93 371.07 1003.93 372.087 1005.63 375.648C1007.32 379.209 1009.87 380.226 1013.77 380.226C1017.67 380.226 1020.72 375.139 1021.74 371.24C1022.55 368.12 1023.32 367.679 1023.6 367.849C1023.54 368.188 1023.33 369.341 1022.92 371.24C1022.41 373.613 1022.24 377.513 1022.92 379.717C1023.6 381.922 1023.43 389.382 1021.74 392.603C1020.04 395.825 1018.85 399.216 1016.48 404.811C1014.11 410.406 1009.19 411.593 1005.29 411.593C1001.39 411.593 999.015 408.88 997.659 403.794C996.302 398.707 996.811 396.503 996.472 392.603C996.133 388.704 996.981 386.499 999.524 380.735C1002.07 374.97 1001.39 373.953 1002.07 370.222Z" fill="#D9D9D9" stroke="#D9D9D9"/>
</svg>
